<svg width="34" height="34" viewBox="0 0 34 34" fill="none" xmlns="http://www.w3.org/2000/svg">
<path d="M9.24377 29.75C8.65349 29.75 8.15176 29.5434 7.73856 29.1302C7.32537 28.717 7.11877 28.2153 7.11877 27.625V7.4375H5.66669V5.3125H12.325V4.25H21.675V5.3125H28.3334V7.4375H26.8813V27.625C26.8813 28.1917 26.6688 28.6875 26.2438 29.1125C25.8188 29.5375 25.3229 29.75 24.7563 29.75H9.24377ZM24.7563 7.4375H9.24377V27.625H24.7563V7.4375ZM12.9979 24.5792H15.1229V10.4479H12.9979V24.5792ZM18.8771 24.5792H21.0021V10.4479H18.8771V24.5792ZM9.24377 7.4375V27.625V7.4375Z" fill="#878686"/>
</svg>
