<svg width="35" height="35" viewBox="0 0 35 35" fill="none" xmlns="http://www.w3.org/2000/svg">
<path d="M6.5625 28.4375H8.16667L24.3177 12.2864L22.7135 10.6823L6.5625 26.8333V28.4375ZM28.9479 10.7187L24.2812 6.05207L25.8125 4.52082C26.2257 4.10763 26.7361 3.90103 27.3437 3.90103C27.9514 3.90103 28.4618 4.10763 28.875 4.52082L30.4792 6.12499C30.8924 6.53818 31.099 7.0486 31.099 7.65624C31.099 8.26388 30.8924 8.77429 30.4792 9.18749L28.9479 10.7187ZM27.4167 12.25L9.04167 30.625H4.375V25.9583L22.75 7.58332L27.4167 12.25ZM23.5156 11.4844L22.7135 10.6823L24.3177 12.2864L23.5156 11.4844Z" fill="#878686"/>
</svg>
